<?xml version="1.0" encoding="UTF-8" standalone="no"?>
<!DOCTYPE svg PUBLIC "-//W3C//DTD SVG 1.1//EN"
 "http://www.w3.org/Graphics/SVG/1.1/DTD/svg11.dtd">
<!-- Generated by graphviz version 2.50.0 (0)
 -->
<!-- Title: G Pages: 1 -->
<svg width="222pt" height="204pt"
 viewBox="0.00 0.00 222.43 204.43" xmlns="http://www.w3.org/2000/svg" xmlns:xlink="http://www.w3.org/1999/xlink">
<g id="graph0" class="graph" transform="scale(1 1) rotate(0) translate(4 200.43)">
<title>G</title>
<polygon fill="white" stroke="transparent" points="-4,4 -4,-200.43 218.43,-200.43 218.43,4 -4,4"/>
<!-- A -->
<g id="node1" class="node">
<title>A</title>
<ellipse fill="none" stroke="black" cx="107.21" cy="-18" rx="27" ry="18"/>
<text text-anchor="middle" x="107.21" y="-14.3" font-family="Times,serif" font-size="14.00">A</text>
</g>
<!-- B -->
<g id="node2" class="node">
<title>B</title>
<ellipse fill="none" stroke="black" cx="27" cy="-98.21" rx="27" ry="18"/>
<text text-anchor="middle" x="27" y="-94.51" font-family="Times,serif" font-size="14.00">B</text>
</g>
<!-- A&#45;&gt;B -->
<g id="edge1" class="edge">
<title>A&#45;&gt;B</title>
<path fill="none" stroke="black" d="M92.13,-33.09C80.03,-45.19 62.87,-62.35 49.2,-76.01"/>
<polygon fill="black" stroke="black" points="46.62,-73.65 42.02,-83.19 51.57,-78.6 46.62,-73.65"/>
</g>
<!-- C -->
<g id="node3" class="node">
<title>C</title>
<ellipse fill="none" stroke="black" cx="107.21" cy="-178.43" rx="27" ry="18"/>
<text text-anchor="middle" x="107.21" y="-174.73" font-family="Times,serif" font-size="14.00">C</text>
</g>
<!-- B&#45;&gt;C -->
<g id="edge2" class="edge">
<title>B&#45;&gt;C</title>
<path fill="none" stroke="black" d="M42.09,-113.3C54.19,-125.4 71.35,-142.56 85.01,-156.23"/>
<polygon fill="black" stroke="black" points="82.65,-158.81 92.19,-163.41 87.6,-153.86 82.65,-158.81"/>
</g>
<!-- D -->
<g id="node4" class="node">
<title>D</title>
<ellipse fill="none" stroke="black" cx="187.43" cy="-98.21" rx="27" ry="18"/>
<text text-anchor="middle" x="187.43" y="-94.51" font-family="Times,serif" font-size="14.00">D</text>
</g>
<!-- C&#45;&gt;D -->
<g id="edge3" class="edge">
<title>C&#45;&gt;D</title>
<path fill="none" stroke="black" d="M122.3,-163.34C134.4,-151.24 151.56,-134.08 165.23,-120.41"/>
<polygon fill="black" stroke="black" points="167.81,-122.78 172.41,-113.23 162.86,-117.83 167.81,-122.78"/>
</g>
<!-- D&#45;&gt;A -->
<g id="edge4" class="edge">
<title>D&#45;&gt;A</title>
<path fill="none" stroke="black" d="M172.34,-83.13C160.24,-71.03 143.08,-53.87 129.41,-40.2"/>
<polygon fill="black" stroke="black" points="131.78,-37.62 122.23,-33.02 126.83,-42.57 131.78,-37.62"/>
</g>
</g>
</svg>
