<?xml version="1.0" encoding="UTF-8" standalone="no"?>
<!DOCTYPE svg PUBLIC "-//W3C//DTD SVG 1.1//EN"
 "http://www.w3.org/Graphics/SVG/1.1/DTD/svg11.dtd">
<!-- Generated by graphviz version 2.50.0 (0)
 -->
<!-- Title: N Pages: 1 -->
<svg width="156pt" height="134pt"
 viewBox="0.00 0.00 155.71 134.19" xmlns="http://www.w3.org/2000/svg" xmlns:xlink="http://www.w3.org/1999/xlink">
<g id="graph0" class="graph" transform="scale(1 1) rotate(0) translate(4 130.19)">
<title>N</title>
<polygon fill="white" stroke="transparent" points="-4,4 -4,-130.19 151.71,-130.19 151.71,4 -4,4"/>
<!-- n0 -->
<g id="node1" class="node">
<title>n0</title>
<ellipse fill="salmon" stroke="red" cx="27" cy="-55.04" rx="27" ry="18"/>
<text text-anchor="middle" x="27" y="-51.34" font-family="Times,serif" font-size="14.00">n0</text>
</g>
<!-- n1 -->
<g id="node2" class="node">
<title>n1</title>
<ellipse fill="none" stroke="black" cx="120.71" cy="-57.26" rx="27" ry="18"/>
<text text-anchor="middle" x="120.71" y="-53.56" font-family="Times,serif" font-size="14.00">n1</text>
</g>
<!-- n0&#45;&#45;n1 -->
<g id="edge1" class="edge">
<title>n0&#45;&#45;n1</title>
<path fill="none" stroke="black" d="M54.1,-55.68C66.54,-55.98 81.24,-56.33 93.66,-56.62"/>
</g>
<!-- n2 -->
<g id="node3" class="node">
<title>n2</title>
<ellipse fill="none" stroke="black" cx="77.41" cy="-18" rx="27" ry="18"/>
<text text-anchor="middle" x="77.41" y="-14.3" font-family="Times,serif" font-size="14.00">n2</text>
</g>
<!-- n1&#45;&#45;n2 -->
<g id="edge2" class="edge">
<title>n1&#45;&#45;n2</title>
<path fill="none" stroke="black" d="M104.59,-42.64C101.03,-39.42 97.26,-36 93.69,-32.76"/>
</g>
<!-- n3 -->
<g id="node4" class="node">
<title>n3</title>
<ellipse fill="none" stroke="black" cx="50.74" cy="-108.19" rx="27" ry="18"/>
<text text-anchor="middle" x="50.74" y="-104.49" font-family="Times,serif" font-size="14.00">n3</text>
</g>
<!-- n2&#45;&#45;n3 -->
<g id="edge3" class="edge">
<title>n2&#45;&#45;n3</title>
<path fill="none" stroke="black" d="M72.14,-35.82C67.47,-51.63 60.67,-74.61 56,-90.41"/>
</g>
<!-- n3&#45;&#45;n0 -->
<g id="edge4" class="edge">
<title>n3&#45;&#45;n0</title>
<path fill="none" stroke="black" d="M42.97,-90.79C40.32,-84.85 37.35,-78.22 34.71,-72.3"/>
</g>
</g>
</svg>
