<?xml version="1.0" encoding="UTF-8" standalone="no"?>
<!DOCTYPE svg PUBLIC "-//W3C//DTD SVG 1.1//EN"
 "http://www.w3.org/Graphics/SVG/1.1/DTD/svg11.dtd">
<!-- Generated by graphviz version 2.50.0 (0)
 -->
<!-- Title: G Pages: 1 -->
<svg width="514pt" height="211pt"
 viewBox="0.00 0.00 513.53 211.00" xmlns="http://www.w3.org/2000/svg" xmlns:xlink="http://www.w3.org/1999/xlink">
<g id="graph0" class="graph" transform="scale(1 1) rotate(0) translate(4 207)">
<title>G</title>
<polygon fill="white" stroke="transparent" points="-4,4 -4,-207 509.53,-207 509.53,4 -4,4"/>
<g id="clust1" class="cluster">
<title>cluster_0</title>
<polygon fill="lightgrey" stroke="lightgrey" points="101.53,-100 101.53,-195 441.53,-195 441.53,-100 101.53,-100"/>
<text text-anchor="middle" x="271.53" y="-179.8" font-family="Times,serif" font-size="14.00">process #1</text>
</g>
<g id="clust2" class="cluster">
<title>cluster_1</title>
<polygon fill="none" stroke="blue" points="101.53,-8 101.53,-83 441.53,-83 441.53,-8 101.53,-8"/>
<text text-anchor="middle" x="271.53" y="-67.8" font-family="Times,serif" font-size="14.00">process #2</text>
</g>
<!-- a0 -->
<g id="node1" class="node">
<title>a0</title>
<ellipse fill="white" stroke="white" cx="136.53" cy="-126" rx="27" ry="18"/>
<text text-anchor="middle" x="136.53" y="-122.3" font-family="Times,serif" font-size="14.00">a0</text>
</g>
<!-- a1 -->
<g id="node2" class="node">
<title>a1</title>
<ellipse fill="white" stroke="white" cx="226.53" cy="-126" rx="27" ry="18"/>
<text text-anchor="middle" x="226.53" y="-122.3" font-family="Times,serif" font-size="14.00">a1</text>
</g>
<!-- a0&#45;&gt;a1 -->
<g id="edge1" class="edge">
<title>a0&#45;&gt;a1</title>
<path fill="none" stroke="black" d="M163.94,-126C171.93,-126 180.84,-126 189.36,-126"/>
<polygon fill="black" stroke="black" points="189.45,-129.5 199.45,-126 189.45,-122.5 189.45,-129.5"/>
</g>
<!-- a2 -->
<g id="node3" class="node">
<title>a2</title>
<ellipse fill="white" stroke="white" cx="316.53" cy="-126" rx="27" ry="18"/>
<text text-anchor="middle" x="316.53" y="-122.3" font-family="Times,serif" font-size="14.00">a2</text>
</g>
<!-- a1&#45;&gt;a2 -->
<g id="edge2" class="edge">
<title>a1&#45;&gt;a2</title>
<path fill="none" stroke="black" d="M253.94,-126C261.93,-126 270.84,-126 279.36,-126"/>
<polygon fill="black" stroke="black" points="279.45,-129.5 289.45,-126 279.45,-122.5 279.45,-129.5"/>
</g>
<!-- b3 -->
<g id="node8" class="node">
<title>b3</title>
<ellipse fill="lightgrey" stroke="black" cx="406.53" cy="-34" rx="27" ry="18"/>
<text text-anchor="middle" x="406.53" y="-30.3" font-family="Times,serif" font-size="14.00">b3</text>
</g>
<!-- a1&#45;&gt;b3 -->
<g id="edge9" class="edge">
<title>a1&#45;&gt;b3</title>
<path fill="none" stroke="black" d="M248.3,-115.27C279.7,-99.04 339.42,-68.17 375.54,-49.5"/>
<polygon fill="black" stroke="black" points="377.35,-52.51 384.62,-44.81 374.13,-46.29 377.35,-52.51"/>
</g>
<!-- a3 -->
<g id="node4" class="node">
<title>a3</title>
<ellipse fill="white" stroke="white" cx="406.53" cy="-126" rx="27" ry="18"/>
<text text-anchor="middle" x="406.53" y="-122.3" font-family="Times,serif" font-size="14.00">a3</text>
</g>
<!-- a2&#45;&gt;a3 -->
<g id="edge3" class="edge">
<title>a2&#45;&gt;a3</title>
<path fill="none" stroke="black" d="M343.94,-126C351.93,-126 360.84,-126 369.36,-126"/>
<polygon fill="black" stroke="black" points="369.45,-129.5 379.45,-126 369.45,-122.5 369.45,-129.5"/>
</g>
<!-- a3&#45;&gt;a0 -->
<g id="edge13" class="edge">
<title>a3&#45;&gt;a0</title>
<path fill="none" stroke="black" d="M385.29,-137.34C373.5,-143.29 358.13,-149.96 343.53,-153 280.88,-166.05 262.19,-166.05 199.53,-153 188.47,-150.7 176.96,-146.31 166.91,-141.73"/>
<polygon fill="black" stroke="black" points="168.31,-138.52 157.78,-137.34 165.27,-144.83 168.31,-138.52"/>
</g>
<!-- end -->
<g id="node10" class="node">
<title>end</title>
<polygon fill="none" stroke="black" points="505.53,-98 469.53,-98 469.53,-62 505.53,-62 505.53,-98"/>
<polyline fill="none" stroke="black" points="481.53,-98 469.53,-86 "/>
<polyline fill="none" stroke="black" points="469.53,-74 481.53,-62 "/>
<polyline fill="none" stroke="black" points="493.53,-62 505.53,-74 "/>
<polyline fill="none" stroke="black" points="505.53,-86 493.53,-98 "/>
<text text-anchor="middle" x="487.53" y="-76.3" font-family="Times,serif" font-size="14.00">end</text>
</g>
<!-- a3&#45;&gt;end -->
<g id="edge12" class="edge">
<title>a3&#45;&gt;end</title>
<path fill="none" stroke="black" d="M427.47,-114.39C437.44,-108.59 449.63,-101.49 460.35,-95.25"/>
<polygon fill="black" stroke="black" points="462.41,-98.1 469.29,-90.04 458.88,-92.05 462.41,-98.1"/>
</g>
<!-- b0 -->
<g id="node5" class="node">
<title>b0</title>
<ellipse fill="lightgrey" stroke="black" cx="136.53" cy="-34" rx="27" ry="18"/>
<text text-anchor="middle" x="136.53" y="-30.3" font-family="Times,serif" font-size="14.00">b0</text>
</g>
<!-- b1 -->
<g id="node6" class="node">
<title>b1</title>
<ellipse fill="lightgrey" stroke="black" cx="226.53" cy="-34" rx="27" ry="18"/>
<text text-anchor="middle" x="226.53" y="-30.3" font-family="Times,serif" font-size="14.00">b1</text>
</g>
<!-- b0&#45;&gt;b1 -->
<g id="edge4" class="edge">
<title>b0&#45;&gt;b1</title>
<path fill="none" stroke="black" d="M163.94,-34C171.93,-34 180.84,-34 189.36,-34"/>
<polygon fill="black" stroke="black" points="189.45,-37.5 199.45,-34 189.45,-30.5 189.45,-37.5"/>
</g>
<!-- b2 -->
<g id="node7" class="node">
<title>b2</title>
<ellipse fill="lightgrey" stroke="black" cx="316.53" cy="-34" rx="27" ry="18"/>
<text text-anchor="middle" x="316.53" y="-30.3" font-family="Times,serif" font-size="14.00">b2</text>
</g>
<!-- b1&#45;&gt;b2 -->
<g id="edge5" class="edge">
<title>b1&#45;&gt;b2</title>
<path fill="none" stroke="black" d="M253.94,-34C261.93,-34 270.84,-34 279.36,-34"/>
<polygon fill="black" stroke="black" points="279.45,-37.5 289.45,-34 279.45,-30.5 279.45,-37.5"/>
</g>
<!-- b2&#45;&gt;a3 -->
<g id="edge11" class="edge">
<title>b2&#45;&gt;a3</title>
<path fill="none" stroke="black" d="M332.06,-49.19C346.29,-64.06 368.12,-86.88 384.29,-103.79"/>
<polygon fill="black" stroke="black" points="381.83,-106.28 391.27,-111.09 386.89,-101.45 381.83,-106.28"/>
</g>
<!-- b2&#45;&gt;b3 -->
<g id="edge6" class="edge">
<title>b2&#45;&gt;b3</title>
<path fill="none" stroke="black" d="M343.94,-34C351.93,-34 360.84,-34 369.36,-34"/>
<polygon fill="black" stroke="black" points="369.45,-37.5 379.45,-34 369.45,-30.5 369.45,-37.5"/>
</g>
<!-- b3&#45;&gt;end -->
<g id="edge10" class="edge">
<title>b3&#45;&gt;end</title>
<path fill="none" stroke="black" d="M427.47,-45.61C437.44,-51.41 449.63,-58.51 460.35,-64.75"/>
<polygon fill="black" stroke="black" points="458.88,-67.95 469.29,-69.96 462.41,-61.9 458.88,-67.95"/>
</g>
<!-- start -->
<g id="node9" class="node">
<title>start</title>
<polygon fill="none" stroke="black" points="36.77,-98 0.23,-80 36.77,-62 73.3,-80 36.77,-98"/>
<polyline fill="none" stroke="black" points="11,-85.3 11,-74.7 "/>
<polyline fill="none" stroke="black" points="26,-67.3 47.53,-67.3 "/>
<polyline fill="none" stroke="black" points="62.54,-74.7 62.54,-85.3 "/>
<polyline fill="none" stroke="black" points="47.53,-92.7 26,-92.7 "/>
<text text-anchor="middle" x="36.77" y="-76.3" font-family="Times,serif" font-size="14.00">start</text>
</g>
<!-- start&#45;&gt;a0 -->
<g id="edge7" class="edge">
<title>start&#45;&gt;a0</title>
<path fill="none" stroke="black" d="M56.16,-88.65C69.71,-95.03 88.48,-103.86 104.37,-111.34"/>
<polygon fill="black" stroke="black" points="103.27,-114.69 113.81,-115.78 106.25,-108.36 103.27,-114.69"/>
</g>
<!-- start&#45;&gt;b0 -->
<g id="edge8" class="edge">
<title>start&#45;&gt;b0</title>
<path fill="none" stroke="black" d="M56.16,-71.35C69.71,-64.97 88.48,-56.14 104.37,-48.66"/>
<polygon fill="black" stroke="black" points="106.25,-51.64 113.81,-44.22 103.27,-45.31 106.25,-51.64"/>
</g>
</g>
</svg>
