<?xml version="1.0" encoding="UTF-8" standalone="no"?>
<!DOCTYPE svg PUBLIC "-//W3C//DTD SVG 1.1//EN"
 "http://www.w3.org/Graphics/SVG/1.1/DTD/svg11.dtd">
<!-- Generated by graphviz version 2.50.0 (0)
 -->
<!-- Title: G Pages: 1 -->
<svg width="622pt" height="334pt"
 viewBox="28.80 28.80 592.80 304.80" xmlns="http://www.w3.org/2000/svg" xmlns:xlink="http://www.w3.org/1999/xlink">
<g id="graph0" class="graph" transform="scale(1 1) rotate(0) translate(32.8 300.8)">
<title>G</title>
<polygon fill="white" stroke="transparent" points="-4,4 -4,-272 560,-272 560,4 -4,4"/>
<!-- E -->
<g id="node1" class="node">
<title>E</title>
<ellipse fill="#cccccc" stroke="black" cx="165" cy="-25" rx="43" ry="25"/>
<text text-anchor="middle" x="165" y="-21.3" font-family="Times,serif" font-size="14.00">E</text>
</g>
<!-- D -->
<g id="node2" class="node">
<title>D</title>
<ellipse fill="#cccccc" stroke="black" cx="43" cy="-25" rx="43" ry="25"/>
<text text-anchor="middle" x="43" y="-21.3" font-family="Times,serif" font-size="14.00">D</text>
</g>
<!-- D&#45;&gt;E -->
<g id="edge4" class="edge">
<title>D&#45;&gt;E</title>
<path fill="none" stroke="black" d="M86.37,-25C94.9,-25 103.44,-25 111.98,-25"/>
<polygon fill="black" stroke="black" points="112,-28.5 122,-25 112,-21.5 112,-28.5"/>
</g>
<!-- C -->
<g id="node3" class="node">
<title>C</title>
<ellipse fill="#cccccc" stroke="black" cx="269" cy="-25" rx="43" ry="25"/>
<text text-anchor="middle" x="269" y="-21.3" font-family="Times,serif" font-size="14.00">C</text>
</g>
<!-- F -->
<g id="node4" class="node">
<title>F</title>
<ellipse fill="#cccccc" stroke="black" cx="391" cy="-25" rx="43" ry="25"/>
<text text-anchor="middle" x="391" y="-21.3" font-family="Times,serif" font-size="14.00">F</text>
</g>
<!-- C&#45;&gt;F -->
<g id="edge5" class="edge">
<title>C&#45;&gt;F</title>
<path fill="none" stroke="black" d="M312.37,-25C320.9,-25 329.44,-25 337.98,-25"/>
<polygon fill="black" stroke="black" points="338,-28.5 348,-25 338,-21.5 338,-28.5"/>
</g>
<!-- G -->
<g id="node5" class="node">
<title>G</title>
<ellipse fill="#cccccc" stroke="black" cx="513" cy="-25" rx="43" ry="25"/>
<text text-anchor="middle" x="513" y="-21.3" font-family="Times,serif" font-size="14.00">G</text>
</g>
<!-- F&#45;&gt;G -->
<g id="edge6" class="edge">
<title>F&#45;&gt;G</title>
<path fill="none" stroke="black" d="M434.37,-25C442.9,-25 451.44,-25 459.98,-25"/>
<polygon fill="black" stroke="black" points="460,-28.5 470,-25 460,-21.5 460,-28.5"/>
</g>
<!-- A -->
<g id="node6" class="node">
<title>A</title>
<ellipse fill="salmon" stroke="black" cx="155" cy="-232" rx="72" ry="36"/>
<text text-anchor="middle" x="155" y="-228.3" font-family="Times,serif" font-size="14.00">Hello</text>
</g>
<!-- B -->
<g id="node7" class="node">
<title>B</title>
<polygon fill="skyblue" stroke="black" points="227,-145 83,-145 83,-87 227,-87 227,-145"/>
<text text-anchor="middle" x="155" y="-112.3" font-family="Times,serif" font-size="14.00">World!</text>
</g>
<!-- A&#45;&gt;B -->
<g id="edge1" class="edge">
<title>A&#45;&gt;B</title>
<path fill="none" stroke="black" d="M155,-195.87C155,-183.06 155,-168.53 155,-155.45"/>
<polygon fill="black" stroke="black" points="158.5,-155.34 155,-145.34 151.5,-155.34 158.5,-155.34"/>
<text text-anchor="middle" x="181" y="-166.8" font-family="Times,serif" font-size="14.00"> connects</text>
</g>
<!-- B&#45;&gt;D -->
<g id="edge3" class="edge">
<title>B&#45;&gt;D</title>
<path fill="none" stroke="black" d="M119.56,-86.84C105.42,-75.6 89.24,-62.75 75.42,-51.76"/>
<polygon fill="black" stroke="black" points="77.59,-49.01 67.58,-45.53 73.23,-54.49 77.59,-49.01"/>
</g>
<!-- B&#45;&gt;C -->
<g id="edge2" class="edge">
<title>B&#45;&gt;C</title>
<path fill="none" stroke="black" d="M191.07,-86.84C205.47,-75.6 221.93,-62.75 236,-51.76"/>
<polygon fill="black" stroke="black" points="238.25,-54.44 243.98,-45.53 233.95,-48.93 238.25,-54.44"/>
</g>
</g>
</svg>
