<?xml version="1.0" encoding="UTF-8" standalone="no"?>
<!DOCTYPE svg PUBLIC "-//W3C//DTD SVG 1.1//EN"
 "http://www.w3.org/Graphics/SVG/1.1/DTD/svg11.dtd">
<!-- Generated by graphviz version 2.50.0 (0)
 -->
<!-- Title: G Pages: 1 -->
<svg width="298pt" height="87pt"
 viewBox="14.40 14.40 283.90 72.40" xmlns="http://www.w3.org/2000/svg" xmlns:xlink="http://www.w3.org/1999/xlink">
<g id="graph0" class="graph" transform="scale(1 1) rotate(0) translate(18.4 68.4)">
<title>G</title>
<polygon fill="white" stroke="transparent" points="-4,4 -4,-54 265.5,-54 265.5,4 -4,4"/>
<!-- A -->
<g id="node1" class="node">
<title>A</title>
<polygon fill="salmon" stroke="black" points="72,-50 0,-50 0,0 72,0 72,-50"/>
<text text-anchor="middle" x="36" y="-21.3" font-family="Times,serif" font-size="14.00">Hello</text>
</g>
<!-- B -->
<g id="node2" class="node">
<title>B</title>
<polygon fill="skyblue" stroke="black" points="162,-50 90,-50 90,0 162,0 162,-50"/>
<text text-anchor="middle" x="126" y="-21.3" font-family="Times,serif" font-size="14.00">World</text>
</g>
<!-- A&#45;&gt;B -->
<g id="edge1" class="edge">
<title>A&#45;&gt;B</title>
<path fill="none" stroke="black" d="M72.21,-25C74.69,-25 77.17,-25 79.66,-25"/>
<polygon fill="black" stroke="black" points="79.86,-28.5 89.86,-25 79.86,-21.5 79.86,-28.5"/>
</g>
<!-- C -->
<g id="node3" class="node">
<title>C</title>
<polygon fill="salmon" stroke="black" points="261.5,-50 180.5,-50 180.5,0 261.5,0 261.5,-50"/>
<text text-anchor="middle" x="221" y="-28.8" font-family="Times,serif" font-size="14.00">Powered by</text>
<text text-anchor="middle" x="221" y="-13.8" font-family="Times,serif" font-size="14.00"> tdot</text>
</g>
<!-- B&#45;&gt;C -->
<g id="edge2" class="edge">
<title>B&#45;&gt;C</title>
<path fill="none" stroke="black" d="M172.42,-25C175.02,-25 177.63,-25 180.23,-25"/>
<polygon fill="black" stroke="black" points="172.37,-21.5 162.37,-25 172.37,-28.5 172.37,-21.5"/>
</g>
</g>
</svg>
