<?xml version="1.0" encoding="UTF-8" standalone="no"?>
<!DOCTYPE svg PUBLIC "-//W3C//DTD SVG 1.1//EN"
 "http://www.w3.org/Graphics/SVG/1.1/DTD/svg11.dtd">
<!-- Generated by graphviz version 2.50.0 (0)
 -->
<!-- Title: Tk Pages: 1 -->
<svg width="558pt" height="619pt"
 viewBox="21.60 21.60 536.34 597.60" xmlns="http://www.w3.org/2000/svg" xmlns:xlink="http://www.w3.org/1999/xlink">
<g id="graph0" class="graph" transform="scale(0.69 0.69) rotate(0) translate(35.39 864.42)">
<title>Tk</title>
<polygon fill="white" stroke="transparent" points="-4,4 -4,-833.03 744,-833.03 744,4 -4,4"/>
<!-- 1988 -->
<g id="node1" class="node">
<title>1988</title>
<polygon fill="grey" stroke="black" points="72,-829.03 0,-829.03 0,-793.03 72,-793.03 72,-829.03"/>
<text text-anchor="middle" x="36" y="-807.33" font-family="Times,serif" font-size="14.00">1988</text>
</g>
<!-- 1993 -->
<g id="node2" class="node">
<title>1993</title>
<polygon fill="grey" stroke="black" points="72,-757.03 0,-757.03 0,-721.03 72,-721.03 72,-757.03"/>
<text text-anchor="middle" x="36" y="-735.33" font-family="Times,serif" font-size="14.00">1993</text>
</g>
<!-- 1988&#45;&gt;1993 -->
<g id="edge1" class="edge">
<title>1988&#45;&gt;1993</title>
<path fill="none" stroke="black" d="M36,-792.73C36,-785.01 36,-775.74 36,-767.14"/>
<polygon fill="black" stroke="black" points="39.5,-767.13 36,-757.13 32.5,-767.13 39.5,-767.13"/>
</g>
<!-- 1995 -->
<g id="node3" class="node">
<title>1995</title>
<polygon fill="grey" stroke="black" points="72,-685.03 0,-685.03 0,-649.03 72,-649.03 72,-685.03"/>
<text text-anchor="middle" x="36" y="-663.33" font-family="Times,serif" font-size="14.00">1995</text>
</g>
<!-- 1993&#45;&gt;1995 -->
<g id="edge2" class="edge">
<title>1993&#45;&gt;1995</title>
<path fill="none" stroke="black" d="M36,-720.73C36,-713.01 36,-703.74 36,-695.14"/>
<polygon fill="black" stroke="black" points="39.5,-695.13 36,-685.13 32.5,-695.13 39.5,-695.13"/>
</g>
<!-- 1997 -->
<g id="node4" class="node">
<title>1997</title>
<polygon fill="grey" stroke="black" points="72,-613.03 0,-613.03 0,-577.03 72,-577.03 72,-613.03"/>
<text text-anchor="middle" x="36" y="-591.33" font-family="Times,serif" font-size="14.00">1997</text>
</g>
<!-- 1995&#45;&gt;1997 -->
<g id="edge3" class="edge">
<title>1995&#45;&gt;1997</title>
<path fill="none" stroke="black" d="M36,-648.73C36,-641.01 36,-631.74 36,-623.14"/>
<polygon fill="black" stroke="black" points="39.5,-623.13 36,-613.13 32.5,-623.13 39.5,-623.13"/>
</g>
<!-- 1999 -->
<g id="node5" class="node">
<title>1999</title>
<polygon fill="grey" stroke="black" points="72,-541.03 0,-541.03 0,-505.03 72,-505.03 72,-541.03"/>
<text text-anchor="middle" x="36" y="-519.33" font-family="Times,serif" font-size="14.00">1999</text>
</g>
<!-- 1997&#45;&gt;1999 -->
<g id="edge4" class="edge">
<title>1997&#45;&gt;1999</title>
<path fill="none" stroke="black" d="M36,-576.73C36,-569.01 36,-559.74 36,-551.14"/>
<polygon fill="black" stroke="black" points="39.5,-551.13 36,-541.13 32.5,-551.13 39.5,-551.13"/>
</g>
<!-- 2000 -->
<g id="node6" class="node">
<title>2000</title>
<polygon fill="grey" stroke="black" points="72,-469.03 0,-469.03 0,-433.03 72,-433.03 72,-469.03"/>
<text text-anchor="middle" x="36" y="-447.33" font-family="Times,serif" font-size="14.00">2000</text>
</g>
<!-- 1999&#45;&gt;2000 -->
<g id="edge5" class="edge">
<title>1999&#45;&gt;2000</title>
<path fill="none" stroke="black" d="M36,-504.73C36,-497.01 36,-487.74 36,-479.14"/>
<polygon fill="black" stroke="black" points="39.5,-479.13 36,-469.13 32.5,-479.13 39.5,-479.13"/>
</g>
<!-- 2002 -->
<g id="node7" class="node">
<title>2002</title>
<polygon fill="grey" stroke="black" points="72,-397.03 0,-397.03 0,-361.03 72,-361.03 72,-397.03"/>
<text text-anchor="middle" x="36" y="-375.33" font-family="Times,serif" font-size="14.00">2002</text>
</g>
<!-- 2000&#45;&gt;2002 -->
<g id="edge6" class="edge">
<title>2000&#45;&gt;2002</title>
<path fill="none" stroke="black" d="M36,-432.73C36,-425.01 36,-415.74 36,-407.14"/>
<polygon fill="black" stroke="black" points="39.5,-407.13 36,-397.13 32.5,-407.13 39.5,-407.13"/>
</g>
<!-- 2007 -->
<g id="node8" class="node">
<title>2007</title>
<polygon fill="grey" stroke="black" points="72,-325.03 0,-325.03 0,-289.03 72,-289.03 72,-325.03"/>
<text text-anchor="middle" x="36" y="-303.33" font-family="Times,serif" font-size="14.00">2007</text>
</g>
<!-- 2002&#45;&gt;2007 -->
<g id="edge7" class="edge">
<title>2002&#45;&gt;2007</title>
<path fill="none" stroke="black" d="M36,-360.73C36,-353.01 36,-343.74 36,-335.14"/>
<polygon fill="black" stroke="black" points="39.5,-335.13 36,-325.13 32.5,-335.13 39.5,-335.13"/>
</g>
<!-- 2012 -->
<g id="node9" class="node">
<title>2012</title>
<polygon fill="grey" stroke="black" points="72,-253.03 0,-253.03 0,-217.03 72,-217.03 72,-253.03"/>
<text text-anchor="middle" x="36" y="-231.33" font-family="Times,serif" font-size="14.00">2012</text>
</g>
<!-- 2007&#45;&gt;2012 -->
<g id="edge8" class="edge">
<title>2007&#45;&gt;2012</title>
<path fill="none" stroke="black" d="M36,-288.73C36,-281.01 36,-271.74 36,-263.14"/>
<polygon fill="black" stroke="black" points="39.5,-263.13 36,-253.13 32.5,-263.13 39.5,-263.13"/>
</g>
<!-- future -->
<g id="node10" class="node">
<title>future</title>
<polygon fill="grey" stroke="black" points="72,-181.03 0,-181.03 0,-145.03 72,-145.03 72,-181.03"/>
<text text-anchor="middle" x="36" y="-159.33" font-family="Times,serif" font-size="14.00">2021</text>
</g>
<!-- 2012&#45;&gt;future -->
<g id="edge9" class="edge">
<title>2012&#45;&gt;future</title>
<path fill="none" stroke="black" d="M36,-216.73C36,-209.01 36,-199.74 36,-191.14"/>
<polygon fill="black" stroke="black" points="39.5,-191.13 36,-181.13 32.5,-191.13 39.5,-191.13"/>
</g>
<!-- Tk -->
<g id="node11" class="node">
<title>Tk</title>
<polygon fill="#ff9999" stroke="black" points="162,-685.03 90,-685.03 90,-649.03 162,-649.03 162,-685.03"/>
<text text-anchor="middle" x="126" y="-663.33" font-family="Times,serif" font-size="14.00">Tk</text>
</g>
<!-- Bytecode -->
<g id="node12" class="node">
<title>Bytecode</title>
<polygon fill="#ff9999" stroke="black" points="162,-613.03 90,-613.03 90,-577.03 162,-577.03 162,-613.03"/>
<text text-anchor="middle" x="126" y="-591.33" font-family="Times,serif" font-size="14.00">Bytecode</text>
</g>
<!-- Tk&#45;&gt;Bytecode -->
<!-- 7.4 -->
<g id="node21" class="node">
<title>7.4</title>
<polygon fill="salmon" stroke="black" points="252,-685.03 180,-685.03 180,-649.03 252,-649.03 252,-685.03"/>
<text text-anchor="middle" x="216" y="-663.33" font-family="Times,serif" font-size="14.00">7.4</text>
</g>
<!-- Tk&#45;&gt;7.4 -->
<g id="edge28" class="edge">
<title>Tk&#45;&gt;7.4</title>
<path fill="none" stroke="black" d="M162.21,-667.03C164.69,-667.03 167.17,-667.03 169.66,-667.03"/>
<polygon fill="black" stroke="black" points="169.86,-670.53 179.86,-667.03 169.86,-663.53 169.86,-670.53"/>
</g>
<!-- Unicode -->
<g id="node13" class="node">
<title>Unicode</title>
<polygon fill="#ff9999" stroke="black" points="162,-541.03 90,-541.03 90,-505.03 162,-505.03 162,-541.03"/>
<text text-anchor="middle" x="126" y="-519.33" font-family="Times,serif" font-size="14.00">Unicode</text>
</g>
<!-- Bytecode&#45;&gt;Unicode -->
<!-- 8.0 -->
<g id="node22" class="node">
<title>8.0</title>
<polygon fill="salmon" stroke="black" points="252,-613.03 180,-613.03 180,-577.03 252,-577.03 252,-613.03"/>
<text text-anchor="middle" x="216" y="-591.33" font-family="Times,serif" font-size="14.00">8.0</text>
</g>
<!-- Bytecode&#45;&gt;8.0 -->
<g id="edge34" class="edge">
<title>Bytecode&#45;&gt;8.0</title>
<path fill="none" stroke="black" d="M162.21,-595.03C164.69,-595.03 167.17,-595.03 169.66,-595.03"/>
<polygon fill="black" stroke="black" points="169.86,-598.53 179.86,-595.03 169.86,-591.53 169.86,-598.53"/>
</g>
<!-- TEA -->
<g id="node14" class="node">
<title>TEA</title>
<polygon fill="#ff9999" stroke="black" points="162,-469.03 90,-469.03 90,-433.03 162,-433.03 162,-469.03"/>
<text text-anchor="middle" x="126" y="-447.33" font-family="Times,serif" font-size="14.00">TEA</text>
</g>
<!-- Unicode&#45;&gt;TEA -->
<!-- 8.1 -->
<g id="node23" class="node">
<title>8.1</title>
<polygon fill="salmon" stroke="black" points="252,-541.03 180,-541.03 180,-505.03 252,-505.03 252,-541.03"/>
<text text-anchor="middle" x="216" y="-519.33" font-family="Times,serif" font-size="14.00">8.1</text>
</g>
<!-- Unicode&#45;&gt;8.1 -->
<g id="edge36" class="edge">
<title>Unicode&#45;&gt;8.1</title>
<path fill="none" stroke="black" d="M162.21,-523.03C164.69,-523.03 167.17,-523.03 169.66,-523.03"/>
<polygon fill="black" stroke="black" points="169.86,-526.53 179.86,-523.03 169.86,-519.53 169.86,-526.53"/>
</g>
<!-- vfs -->
<g id="node15" class="node">
<title>vfs</title>
<polygon fill="#ff9999" stroke="black" points="162,-397.03 90,-397.03 90,-361.03 162,-361.03 162,-397.03"/>
<text text-anchor="middle" x="126" y="-375.33" font-family="Times,serif" font-size="14.00">vfs</text>
</g>
<!-- TEA&#45;&gt;vfs -->
<!-- 8.3 -->
<g id="node24" class="node">
<title>8.3</title>
<polygon fill="salmon" stroke="black" points="252,-469.03 180,-469.03 180,-433.03 252,-433.03 252,-469.03"/>
<text text-anchor="middle" x="216" y="-447.33" font-family="Times,serif" font-size="14.00">8.3</text>
</g>
<!-- TEA&#45;&gt;8.3 -->
<g id="edge38" class="edge">
<title>TEA&#45;&gt;8.3</title>
<path fill="none" stroke="black" d="M162.21,-451.03C164.69,-451.03 167.17,-451.03 169.66,-451.03"/>
<polygon fill="black" stroke="black" points="169.86,-454.53 179.86,-451.03 169.86,-447.53 169.86,-454.53"/>
</g>
<!-- Tile -->
<g id="node16" class="node">
<title>Tile</title>
<polygon fill="#ff9999" stroke="black" points="162,-325.03 90,-325.03 90,-289.03 162,-289.03 162,-325.03"/>
<text text-anchor="middle" x="126" y="-303.33" font-family="Times,serif" font-size="14.00">Tile</text>
</g>
<!-- vfs&#45;&gt;Tile -->
<!-- 8.4 -->
<g id="node25" class="node">
<title>8.4</title>
<polygon fill="salmon" stroke="black" points="252,-397.03 180,-397.03 180,-361.03 252,-361.03 252,-397.03"/>
<text text-anchor="middle" x="216" y="-375.33" font-family="Times,serif" font-size="14.00">8.4</text>
</g>
<!-- vfs&#45;&gt;8.4 -->
<g id="edge45" class="edge">
<title>vfs&#45;&gt;8.4</title>
<path fill="none" stroke="black" d="M162.21,-379.03C164.69,-379.03 167.17,-379.03 169.66,-379.03"/>
<polygon fill="black" stroke="black" points="169.86,-382.53 179.86,-379.03 169.86,-375.53 169.86,-382.53"/>
</g>
<!-- TclOO -->
<g id="node17" class="node">
<title>TclOO</title>
<polygon fill="#ff9999" stroke="black" points="162,-253.03 90,-253.03 90,-217.03 162,-217.03 162,-253.03"/>
<text text-anchor="middle" x="126" y="-231.33" font-family="Times,serif" font-size="14.00">TclOO</text>
</g>
<!-- Tile&#45;&gt;TclOO -->
<!-- 8.5 -->
<g id="node26" class="node">
<title>8.5</title>
<polygon fill="salmon" stroke="black" points="252,-325.03 180,-325.03 180,-289.03 252,-289.03 252,-325.03"/>
<text text-anchor="middle" x="216" y="-303.33" font-family="Times,serif" font-size="14.00">8.5</text>
</g>
<!-- Tile&#45;&gt;8.5 -->
<g id="edge46" class="edge">
<title>Tile&#45;&gt;8.5</title>
<path fill="none" stroke="black" d="M162.21,-307.03C164.69,-307.03 167.17,-307.03 169.66,-307.03"/>
<polygon fill="black" stroke="black" points="169.86,-310.53 179.86,-307.03 169.86,-303.53 169.86,-310.53"/>
</g>
<!-- zipvfs -->
<g id="node18" class="node">
<title>zipvfs</title>
<polygon fill="#ff9999" stroke="black" points="162,-181.03 90,-181.03 90,-145.03 162,-145.03 162,-181.03"/>
<text text-anchor="middle" x="126" y="-159.33" font-family="Times,serif" font-size="14.00">zipvfs</text>
</g>
<!-- TclOO&#45;&gt;zipvfs -->
<!-- 8.6 -->
<g id="node27" class="node">
<title>8.6</title>
<polygon fill="salmon" stroke="black" points="252,-253.03 180,-253.03 180,-217.03 252,-217.03 252,-253.03"/>
<text text-anchor="middle" x="216" y="-231.33" font-family="Times,serif" font-size="14.00">8.6</text>
</g>
<!-- TclOO&#45;&gt;8.6 -->
<g id="edge47" class="edge">
<title>TclOO&#45;&gt;8.6</title>
<path fill="none" stroke="black" d="M162.21,-235.03C164.69,-235.03 167.17,-235.03 169.66,-235.03"/>
<polygon fill="black" stroke="black" points="169.86,-238.53 179.86,-235.03 169.86,-231.53 169.86,-238.53"/>
</g>
<!-- 8.7 -->
<g id="node28" class="node">
<title>8.7</title>
<polygon fill="salmon" stroke="black" points="252,-181.03 180,-181.03 180,-145.03 252,-145.03 252,-181.03"/>
<text text-anchor="middle" x="216" y="-159.33" font-family="Times,serif" font-size="14.00">[ 8.7a5 ]</text>
</g>
<!-- zipvfs&#45;&gt;8.7 -->
<g id="edge49" class="edge">
<title>zipvfs&#45;&gt;8.7</title>
<path fill="none" stroke="black" d="M162.21,-163.03C164.69,-163.03 167.17,-163.03 169.66,-163.03"/>
<polygon fill="black" stroke="black" points="169.86,-166.53 179.86,-163.03 169.86,-159.53 169.86,-166.53"/>
</g>
<!-- Tcl/Tk -->
<g id="node19" class="node">
<title>Tcl/Tk</title>
<polygon fill="salmon" stroke="black" points="252,-829.03 180,-829.03 180,-793.03 252,-793.03 252,-829.03"/>
<text text-anchor="middle" x="216" y="-807.33" font-family="Times,serif" font-size="14.00">Tcl/Tk</text>
</g>
<!-- 7.3 -->
<g id="node20" class="node">
<title>7.3</title>
<polygon fill="salmon" stroke="black" points="252,-757.03 180,-757.03 180,-721.03 252,-721.03 252,-757.03"/>
<text text-anchor="middle" x="216" y="-735.33" font-family="Times,serif" font-size="14.00">7.3</text>
</g>
<!-- Tcl/Tk&#45;&gt;7.3 -->
<g id="edge17" class="edge">
<title>Tcl/Tk&#45;&gt;7.3</title>
<path fill="none" stroke="black" d="M216,-792.73C216,-785.01 216,-775.74 216,-767.14"/>
<polygon fill="black" stroke="black" points="219.5,-767.13 216,-757.13 212.5,-767.13 219.5,-767.13"/>
</g>
<!-- 7.3&#45;&gt;7.4 -->
<g id="edge18" class="edge">
<title>7.3&#45;&gt;7.4</title>
<path fill="none" stroke="black" d="M216,-720.73C216,-713.01 216,-703.74 216,-695.14"/>
<polygon fill="black" stroke="black" points="219.5,-695.13 216,-685.13 212.5,-695.13 219.5,-695.13"/>
</g>
<!-- Itcl -->
<g id="node29" class="node">
<title>Itcl</title>
<polygon fill="cornsilk" stroke="black" points="464,-757.03 392,-757.03 392,-721.03 464,-721.03 464,-757.03"/>
<text text-anchor="middle" x="428" y="-735.33" font-family="Times,serif" font-size="14.00">Itcl</text>
</g>
<!-- 7.3&#45;&gt;Itcl -->
<g id="edge26" class="edge">
<title>7.3&#45;&gt;Itcl</title>
<path fill="none" stroke="black" d="M252.02,-739.03C295.28,-739.03 338.54,-739.03 381.8,-739.03"/>
<polygon fill="black" stroke="black" points="381.91,-742.53 391.91,-739.03 381.91,-735.53 381.91,-742.53"/>
</g>
<!-- 7.4&#45;&gt;8.0 -->
<g id="edge19" class="edge">
<title>7.4&#45;&gt;8.0</title>
<path fill="none" stroke="black" d="M216,-648.73C216,-641.01 216,-631.74 216,-623.14"/>
<polygon fill="black" stroke="black" points="219.5,-623.13 216,-613.13 212.5,-623.13 219.5,-623.13"/>
</g>
<!-- Otcl -->
<g id="node30" class="node">
<title>Otcl</title>
<polygon fill="cornsilk" stroke="black" points="740,-685.03 668,-685.03 668,-649.03 740,-649.03 740,-685.03"/>
<text text-anchor="middle" x="704" y="-663.33" font-family="Times,serif" font-size="14.00">Otcl</text>
</g>
<!-- 7.4&#45;&gt;Otcl -->
<g id="edge29" class="edge">
<title>7.4&#45;&gt;Otcl</title>
<path fill="none" stroke="black" d="M252.22,-667.03C387.37,-667.03 522.52,-667.03 657.68,-667.03"/>
<polygon fill="black" stroke="black" points="657.82,-670.53 667.82,-667.03 657.82,-663.53 657.82,-670.53"/>
</g>
<!-- 8.0&#45;&gt;8.1 -->
<g id="edge20" class="edge">
<title>8.0&#45;&gt;8.1</title>
<path fill="none" stroke="black" d="M216,-576.73C216,-569.01 216,-559.74 216,-551.14"/>
<polygon fill="black" stroke="black" points="219.5,-551.13 216,-541.13 212.5,-551.13 219.5,-551.13"/>
</g>
<!-- Namespace -->
<g id="node35" class="node">
<title>Namespace</title>
<polygon fill="#ff9999" stroke="black" points="350,-613.03 270,-613.03 270,-577.03 350,-577.03 350,-613.03"/>
<text text-anchor="middle" x="310" y="-591.33" font-family="Times,serif" font-size="14.00">Namespace</text>
</g>
<!-- 8.0&#45;&gt;Namespace -->
<g id="edge35" class="edge">
<title>8.0&#45;&gt;Namespace</title>
<path fill="none" stroke="black" d="M262.51,-595.03C264.98,-595.03 267.45,-595.03 269.92,-595.03"/>
<polygon fill="black" stroke="black" points="262.35,-591.53 252.35,-595.03 262.35,-598.53 262.35,-591.53"/>
</g>
<!-- 8.1&#45;&gt;8.3 -->
<g id="edge21" class="edge">
<title>8.1&#45;&gt;8.3</title>
<path fill="none" stroke="black" d="M216,-504.73C216,-497.01 216,-487.74 216,-479.14"/>
<polygon fill="black" stroke="black" points="219.5,-479.13 216,-469.13 212.5,-479.13 219.5,-479.13"/>
</g>
<!-- Wiki -->
<g id="node36" class="node">
<title>Wiki</title>
<polygon fill="cornsilk" stroke="black" points="342,-541.03 270,-541.03 270,-505.03 342,-505.03 342,-541.03"/>
<text text-anchor="middle" x="306" y="-519.33" font-family="Times,serif" font-size="14.00">Wiki</text>
</g>
<!-- 8.1&#45;&gt;Wiki -->
<g id="edge37" class="edge">
<title>8.1&#45;&gt;Wiki</title>
<path fill="none" stroke="black" d="M252.21,-523.03C254.69,-523.03 257.17,-523.03 259.66,-523.03"/>
<polygon fill="black" stroke="black" points="259.86,-526.53 269.86,-523.03 259.86,-519.53 259.86,-526.53"/>
</g>
<!-- 8.3&#45;&gt;8.4 -->
<g id="edge22" class="edge">
<title>8.3&#45;&gt;8.4</title>
<path fill="none" stroke="black" d="M216,-432.73C216,-425.01 216,-415.74 216,-407.14"/>
<polygon fill="black" stroke="black" points="219.5,-407.13 216,-397.13 212.5,-407.13 219.5,-407.13"/>
</g>
<!-- Tcllib -->
<g id="node37" class="node">
<title>Tcllib</title>
<polygon fill="cornsilk" stroke="black" points="342,-469.03 270,-469.03 270,-433.03 342,-433.03 342,-469.03"/>
<text text-anchor="middle" x="306" y="-447.33" font-family="Times,serif" font-size="14.00">Tcllib</text>
</g>
<!-- 8.3&#45;&gt;Tcllib -->
<g id="edge39" class="edge">
<title>8.3&#45;&gt;Tcllib</title>
<path fill="none" stroke="black" d="M252.21,-451.03C254.69,-451.03 257.17,-451.03 259.66,-451.03"/>
<polygon fill="black" stroke="black" points="259.86,-454.53 269.86,-451.03 259.86,-447.53 259.86,-454.53"/>
</g>
<!-- 8.4&#45;&gt;8.5 -->
<g id="edge23" class="edge">
<title>8.4&#45;&gt;8.5</title>
<path fill="none" stroke="black" d="M216,-360.73C216,-353.01 216,-343.74 216,-335.14"/>
<polygon fill="black" stroke="black" points="219.5,-335.13 216,-325.13 212.5,-335.13 219.5,-335.13"/>
</g>
<!-- Starkit -->
<g id="node39" class="node">
<title>Starkit</title>
<polygon fill="cornsilk" stroke="black" points="342,-397.03 270,-397.03 270,-361.03 342,-361.03 342,-397.03"/>
<text text-anchor="middle" x="306" y="-375.33" font-family="Times,serif" font-size="14.00">Starkit</text>
</g>
<!-- 8.4&#45;&gt;Starkit -->
<g id="edge41" class="edge">
<title>8.4&#45;&gt;Starkit</title>
<path fill="none" stroke="black" d="M252.21,-379.03C254.69,-379.03 257.17,-379.03 259.66,-379.03"/>
<polygon fill="black" stroke="black" points="259.86,-382.53 269.86,-379.03 259.86,-375.53 259.86,-382.53"/>
</g>
<!-- 8.5&#45;&gt;8.6 -->
<g id="edge24" class="edge">
<title>8.5&#45;&gt;8.6</title>
<path fill="none" stroke="black" d="M216,-288.73C216,-281.01 216,-271.74 216,-263.14"/>
<polygon fill="black" stroke="black" points="219.5,-263.13 216,-253.13 212.5,-263.13 219.5,-263.13"/>
</g>
<!-- 8.6&#45;&gt;8.7 -->
<g id="edge25" class="edge">
<title>8.6&#45;&gt;8.7</title>
<path fill="none" stroke="black" d="M216,-216.73C216,-209.01 216,-199.74 216,-191.14"/>
<polygon fill="black" stroke="black" points="219.5,-191.13 216,-181.13 212.5,-191.13 219.5,-191.13"/>
</g>
<!-- TDBC -->
<g id="node42" class="node">
<title>TDBC</title>
<polygon fill="cornsilk" stroke="black" points="342,-253.03 270,-253.03 270,-217.03 342,-217.03 342,-253.03"/>
<text text-anchor="middle" x="306" y="-231.33" font-family="Times,serif" font-size="14.00">TDBC</text>
</g>
<!-- 8.6&#45;&gt;TDBC -->
<g id="edge48" class="edge">
<title>8.6&#45;&gt;TDBC</title>
<path fill="none" stroke="black" d="M252.21,-235.03C254.69,-235.03 257.17,-235.03 259.66,-235.03"/>
<polygon fill="black" stroke="black" points="259.86,-238.53 269.86,-235.03 259.86,-231.53 259.86,-238.53"/>
</g>
<!-- Null -->
<!-- 8.7&#45;&gt;Null -->
<!-- Itcl&#45;&gt;8.6 -->
<g id="edge27" class="edge">
<title>Itcl&#45;&gt;8.6</title>
<path fill="none" stroke="black" d="M457.84,-720.86C493.96,-697.6 550,-652.42 550,-596.03 550,-596.03 550,-596.03 550,-378.03 550,-366.7 540.64,-366.99 531,-361.03 518.92,-353.56 345.91,-286.27 261.57,-253.63"/>
<polygon fill="black" stroke="black" points="262.82,-250.36 252.23,-250.01 260.29,-256.88 262.82,-250.36"/>
</g>
<!-- XOTcl -->
<g id="node31" class="node">
<title>XOTcl</title>
<polygon fill="cornsilk" stroke="black" points="740,-469.03 668,-469.03 668,-433.03 740,-433.03 740,-469.03"/>
<text text-anchor="middle" x="704" y="-447.33" font-family="Times,serif" font-size="14.00">XOTcl</text>
</g>
<!-- Otcl&#45;&gt;XOTcl -->
<g id="edge30" class="edge">
<title>Otcl&#45;&gt;XOTcl</title>
<path fill="none" stroke="black" d="M704,-648.88C704,-611.86 704,-524.21 704,-479.41"/>
<polygon fill="black" stroke="black" points="707.5,-479.26 704,-469.26 700.5,-479.26 707.5,-479.26"/>
</g>
<!-- Thingy -->
<g id="node33" class="node">
<title>Thingy</title>
<polygon fill="cornsilk" stroke="black" points="650,-469.03 578,-469.03 578,-433.03 650,-433.03 650,-469.03"/>
<text text-anchor="middle" x="614" y="-447.33" font-family="Times,serif" font-size="14.00">Thingy</text>
</g>
<!-- Otcl&#45;&gt;Thingy -->
<g id="edge32" class="edge">
<title>Otcl&#45;&gt;Thingy</title>
<path fill="none" stroke="black" d="M696.79,-648.88C681.12,-611.63 643.89,-523.1 625.16,-478.57"/>
<polygon fill="black" stroke="black" points="628.35,-477.12 621.25,-469.26 621.9,-479.84 628.35,-477.12"/>
</g>
<!-- NX -->
<g id="node32" class="node">
<title>NX</title>
<polygon fill="cornsilk" stroke="black" points="740,-253.03 668,-253.03 668,-217.03 740,-217.03 740,-253.03"/>
<text text-anchor="middle" x="704" y="-231.33" font-family="Times,serif" font-size="14.00">NX</text>
</g>
<!-- XOTcl&#45;&gt;NX -->
<g id="edge31" class="edge">
<title>XOTcl&#45;&gt;NX</title>
<path fill="none" stroke="black" d="M704,-432.88C704,-395.86 704,-308.21 704,-263.41"/>
<polygon fill="black" stroke="black" points="707.5,-263.26 704,-253.26 700.5,-263.26 707.5,-263.26"/>
</g>
<!-- tdot -->
<g id="node34" class="node">
<title>tdot</title>
<polygon fill="cornsilk" stroke="black" points="650,-181.03 578,-181.03 578,-145.03 650,-145.03 650,-181.03"/>
<text text-anchor="middle" x="614" y="-159.33" font-family="Times,serif" font-size="14.00">tdot</text>
</g>
<!-- Thingy&#45;&gt;tdot -->
<g id="edge33" class="edge">
<title>Thingy&#45;&gt;tdot</title>
<path fill="none" stroke="black" d="M614,-432.99C614,-385.32 614,-250.21 614,-191.66"/>
<polygon fill="black" stroke="black" points="617.5,-191.33 614,-181.33 610.5,-191.33 617.5,-191.33"/>
</g>
<!-- Tklib -->
<g id="node38" class="node">
<title>Tklib</title>
<polygon fill="cornsilk" stroke="black" points="432,-469.03 360,-469.03 360,-433.03 432,-433.03 432,-469.03"/>
<text text-anchor="middle" x="396" y="-447.33" font-family="Times,serif" font-size="14.00">Tklib</text>
</g>
<!-- Tcllib&#45;&gt;Tklib -->
<g id="edge40" class="edge">
<title>Tcllib&#45;&gt;Tklib</title>
<path fill="none" stroke="black" d="M342.21,-451.03C344.69,-451.03 347.17,-451.03 349.66,-451.03"/>
<polygon fill="black" stroke="black" points="349.86,-454.53 359.86,-451.03 349.86,-447.53 349.86,-454.53"/>
</g>
<!-- Snit -->
<g id="node40" class="node">
<title>Snit</title>
<polygon fill="cornsilk" stroke="black" points="432,-397.03 360,-397.03 360,-361.03 432,-361.03 432,-397.03"/>
<text text-anchor="middle" x="396" y="-375.33" font-family="Times,serif" font-size="14.00">Snit</text>
</g>
<!-- Starkit&#45;&gt;Snit -->
<g id="edge42" class="edge">
<title>Starkit&#45;&gt;Snit</title>
<path fill="none" stroke="black" d="M342.21,-379.03C344.69,-379.03 347.17,-379.03 349.66,-379.03"/>
<polygon fill="black" stroke="black" points="349.86,-382.53 359.86,-379.03 349.86,-375.53 349.86,-382.53"/>
</g>
<!-- Dict -->
<g id="node41" class="node">
<title>Dict</title>
<polygon fill="cornsilk" stroke="black" points="522,-397.03 450,-397.03 450,-361.03 522,-361.03 522,-397.03"/>
<text text-anchor="middle" x="486" y="-375.33" font-family="Times,serif" font-size="14.00">Dict</text>
</g>
<!-- Snit&#45;&gt;Dict -->
<g id="edge43" class="edge">
<title>Snit&#45;&gt;Dict</title>
<path fill="none" stroke="black" d="M432.21,-379.03C434.69,-379.03 437.17,-379.03 439.66,-379.03"/>
<polygon fill="black" stroke="black" points="439.86,-382.53 449.86,-379.03 439.86,-375.53 439.86,-382.53"/>
</g>
<!-- Dict&#45;&gt;8.5 -->
<g id="edge44" class="edge">
<title>Dict&#45;&gt;8.5</title>
<path fill="none" stroke="black" d="M449.79,-363.89C446.83,-362.87 443.88,-361.91 441,-361.03 379.98,-342.4 307.98,-326.47 262.16,-317.07"/>
<polygon fill="black" stroke="black" points="262.73,-313.61 252.24,-315.05 261.34,-320.47 262.73,-313.61"/>
</g>
<!-- History -->
<g id="node44" class="node">
<title>History</title>
<polygon fill="white" stroke="salmon" stroke-width="5" points="523.23,-33.59 523.23,-75.44 395.98,-105.04 216.02,-105.04 88.77,-75.44 88.77,-33.59 216.02,-3.99 395.98,-3.99 523.23,-33.59"/>
<polygon fill="none" stroke="salmon" stroke-width="5" points="527.23,-30.41 527.23,-78.62 396.44,-109.04 215.56,-109.04 84.77,-78.62 84.77,-30.41 215.56,0.01 396.44,0.01 527.23,-30.41"/>
<text text-anchor="middle" x="306" y="-62.71" font-family="Monaco" font-size="26.00">History of Tcl/Tk</text>
<text text-anchor="middle" x="306" y="-33.71" font-family="Monaco" font-size="26.00">and tdot</text>
</g>
<!-- Null&#45;&gt;History -->
</g>
</svg>
