<?xml version="1.0" encoding="UTF-8" standalone="no"?>
<!DOCTYPE svg PUBLIC "-//W3C//DTD SVG 1.1//EN"
 "http://www.w3.org/Graphics/SVG/1.1/DTD/svg11.dtd">
<!-- Generated by graphviz version 2.50.0 (0)
 -->
<!-- Title: G Pages: 1 -->
<svg width="236pt" height="267pt"
 viewBox="0.00 0.00 236.30 266.90" xmlns="http://www.w3.org/2000/svg" xmlns:xlink="http://www.w3.org/1999/xlink">
<g id="graph0" class="graph" transform="scale(1 1) rotate(0) translate(4 262.9)">
<title>G</title>
<polygon fill="white" stroke="transparent" points="-4,4 -4,-262.9 232.3,-262.9 232.3,4 -4,4"/>
<!-- run -->
<g id="node1" class="node">
<title>run</title>
<ellipse fill="skyblue" stroke="black" cx="142.78" cy="-92.91" rx="27" ry="18"/>
<text text-anchor="middle" x="142.78" y="-89.21" font-family="Times,serif" font-size="14.00">run</text>
</g>
<!-- intr -->
<g id="node2" class="node">
<title>intr</title>
<ellipse fill="skyblue" stroke="black" cx="201.3" cy="-45.45" rx="27" ry="18"/>
<text text-anchor="middle" x="201.3" y="-41.75" font-family="Times,serif" font-size="14.00">intr</text>
</g>
<!-- run&#45;&#45;intr -->
<g id="edge1" class="edge">
<title>run&#45;&#45;intr</title>
<path fill="none" stroke="black" d="M160.02,-78.93C167.57,-72.8 176.42,-65.63 183.98,-59.49"/>
</g>
<!-- kernel -->
<g id="node4" class="node">
<title>kernel</title>
<ellipse fill="skyblue" stroke="black" cx="113.13" cy="-167.49" rx="32.49" ry="18"/>
<text text-anchor="middle" x="113.13" y="-163.79" font-family="Times,serif" font-size="14.00">kernel</text>
</g>
<!-- run&#45;&#45;kernel -->
<g id="edge4" class="edge">
<title>run&#45;&#45;kernel</title>
<path fill="none" stroke="black" d="M135.75,-110.58C131.06,-122.39 124.91,-137.85 120.21,-149.68"/>
</g>
<!-- runbl -->
<g id="node3" class="node">
<title>runbl</title>
<ellipse fill="skyblue" stroke="black" cx="137.46" cy="-18" rx="29.5" ry="18"/>
<text text-anchor="middle" x="137.46" y="-14.3" font-family="Times,serif" font-size="14.00">runbl</text>
</g>
<!-- intr&#45;&#45;runbl -->
<g id="edge2" class="edge">
<title>intr&#45;&#45;runbl</title>
<path fill="none" stroke="black" d="M178.26,-35.54C172.83,-33.2 167.03,-30.71 161.55,-28.36"/>
</g>
<!-- runbl&#45;&#45;run -->
<g id="edge3" class="edge">
<title>runbl&#45;&#45;run</title>
<path fill="none" stroke="black" d="M138.75,-36.13C139.58,-47.82 140.65,-62.97 141.48,-74.68"/>
</g>
<!-- zombie -->
<g id="node5" class="node">
<title>zombie</title>
<ellipse fill="skyblue" stroke="black" cx="179.92" cy="-215.25" rx="37.09" ry="18"/>
<text text-anchor="middle" x="179.92" y="-211.55" font-family="Times,serif" font-size="14.00">zombie</text>
</g>
<!-- kernel&#45;&#45;zombie -->
<g id="edge5" class="edge">
<title>kernel&#45;&#45;zombie</title>
<path fill="none" stroke="black" d="M133.17,-181.82C141.31,-187.64 150.73,-194.37 158.96,-200.26"/>
</g>
<!-- sleep -->
<g id="node6" class="node">
<title>sleep</title>
<ellipse fill="skyblue" stroke="black" cx="84.41" cy="-240.9" rx="28.7" ry="18"/>
<text text-anchor="middle" x="84.41" y="-237.2" font-family="Times,serif" font-size="14.00">sleep</text>
</g>
<!-- kernel&#45;&#45;sleep -->
<g id="edge6" class="edge">
<title>kernel&#45;&#45;sleep</title>
<path fill="none" stroke="black" d="M106.18,-185.26C101.66,-196.8 95.8,-211.78 91.3,-223.29"/>
</g>
<!-- runmem -->
<g id="node7" class="node">
<title>runmem</title>
<ellipse fill="skyblue" stroke="black" cx="31.82" cy="-156.34" rx="31.64" ry="26.74"/>
<text text-anchor="middle" x="31.82" y="-160.14" font-family="Times,serif" font-size="14.00">run</text>
<text text-anchor="middle" x="31.82" y="-145.14" font-family="Times,serif" font-size="14.00">mem</text>
</g>
<!-- kernel&#45;&#45;runmem -->
<g id="edge7" class="edge">
<title>kernel&#45;&#45;runmem</title>
<path fill="none" stroke="black" d="M81.46,-163.14C75.48,-162.32 69.24,-161.47 63.27,-160.65"/>
</g>
</g>
</svg>
