<?xml version="1.0" encoding="UTF-8" standalone="no"?>
<!DOCTYPE svg PUBLIC "-//W3C//DTD SVG 1.1//EN"
 "http://www.w3.org/Graphics/SVG/1.1/DTD/svg11.dtd">
<!-- Generated by graphviz version 2.50.0 (0)
 -->
<!-- Title: G Pages: 1 -->
<svg width="366pt" height="332pt"
 viewBox="0.00 0.00 366.00 332.00" xmlns="http://www.w3.org/2000/svg" xmlns:xlink="http://www.w3.org/1999/xlink">
<g id="graph0" class="graph" transform="scale(1 1) rotate(0) translate(4 328)">
<title>G</title>
<polygon fill="white" stroke="transparent" points="-4,4 -4,-328 362,-328 362,4 -4,4"/>
<!-- dir1 -->
<g id="node1" class="node">
<title>dir1</title>
<ellipse fill="skyblue" stroke="black" cx="141" cy="-306" rx="27" ry="18"/>
<text text-anchor="middle" x="141" y="-302.3" font-family="Times,serif" font-size="14.00">dir1</text>
</g>
<!-- CVS -->
<g id="node2" class="node">
<title>CVS</title>
<ellipse fill="skyblue" stroke="black" cx="32" cy="-234" rx="27.9" ry="18"/>
<text text-anchor="middle" x="32" y="-230.3" font-family="Times,serif" font-size="14.00">CVS</text>
</g>
<!-- dir1&#45;&gt;CVS -->
<g id="edge1" class="edge">
<title>dir1&#45;&gt;CVS</title>
<path fill="none" stroke="black" d="M122.01,-292.81C104.77,-281.73 79.13,-265.26 59.62,-252.73"/>
<polygon fill="black" stroke="black" points="61.44,-249.75 51.13,-247.29 57.66,-255.64 61.44,-249.75"/>
</g>
<!-- src -->
<g id="node3" class="node">
<title>src</title>
<ellipse fill="skyblue" stroke="black" cx="105" cy="-234" rx="27" ry="18"/>
<text text-anchor="middle" x="105" y="-230.3" font-family="Times,serif" font-size="14.00">src</text>
</g>
<!-- dir1&#45;&gt;src -->
<g id="edge2" class="edge">
<title>dir1&#45;&gt;src</title>
<path fill="none" stroke="black" d="M132.65,-288.76C128.29,-280.28 122.85,-269.71 117.96,-260.2"/>
<polygon fill="black" stroke="black" points="120.99,-258.44 113.3,-251.15 114.77,-261.64 120.99,-258.44"/>
</g>
<!-- vfs -->
<g id="node5" class="node">
<title>vfs</title>
<ellipse fill="skyblue" stroke="black" cx="177" cy="-234" rx="27" ry="18"/>
<text text-anchor="middle" x="177" y="-230.3" font-family="Times,serif" font-size="14.00">vfs</text>
</g>
<!-- dir1&#45;&gt;vfs -->
<g id="edge4" class="edge">
<title>dir1&#45;&gt;vfs</title>
<path fill="none" stroke="black" d="M149.35,-288.76C153.71,-280.28 159.15,-269.71 164.04,-260.2"/>
<polygon fill="black" stroke="black" points="167.23,-261.64 168.7,-251.15 161.01,-258.44 167.23,-261.64"/>
</g>
<!-- www -->
<g id="node13" class="node">
<title>www</title>
<ellipse fill="skyblue" stroke="black" cx="291" cy="-234" rx="29.8" ry="18"/>
<text text-anchor="middle" x="291" y="-230.3" font-family="Times,serif" font-size="14.00">www</text>
</g>
<!-- dir1&#45;&gt;www -->
<g id="edge12" class="edge">
<title>dir1&#45;&gt;www</title>
<path fill="none" stroke="black" d="M162.49,-294.97C187.67,-283.22 229.65,-263.63 258.74,-250.05"/>
<polygon fill="black" stroke="black" points="260.49,-253.1 268.07,-245.7 257.53,-246.76 260.49,-253.1"/>
</g>
<!-- doc -->
<g id="node4" class="node">
<title>doc</title>
<ellipse fill="skyblue" stroke="black" cx="27" cy="-162" rx="27" ry="18"/>
<text text-anchor="middle" x="27" y="-158.3" font-family="Times,serif" font-size="14.00">doc</text>
</g>
<!-- src&#45;&gt;doc -->
<g id="edge3" class="edge">
<title>src&#45;&gt;doc</title>
<path fill="none" stroke="black" d="M89.59,-219.17C78.27,-209.01 62.69,-195.03 49.91,-183.56"/>
<polygon fill="black" stroke="black" points="52.16,-180.88 42.38,-176.8 47.48,-186.09 52.16,-180.88"/>
</g>
<!-- bin -->
<g id="node6" class="node">
<title>bin</title>
<ellipse fill="skyblue" stroke="black" cx="99" cy="-162" rx="27" ry="18"/>
<text text-anchor="middle" x="99" y="-158.3" font-family="Times,serif" font-size="14.00">bin</text>
</g>
<!-- vfs&#45;&gt;bin -->
<g id="edge5" class="edge">
<title>vfs&#45;&gt;bin</title>
<path fill="none" stroke="black" d="M161.59,-219.17C150.27,-209.01 134.69,-195.03 121.91,-183.56"/>
<polygon fill="black" stroke="black" points="124.16,-180.88 114.38,-176.8 119.48,-186.09 124.16,-180.88"/>
</g>
<!-- config -->
<g id="node7" class="node">
<title>config</title>
<ellipse fill="skyblue" stroke="black" cx="177" cy="-162" rx="33.29" ry="18"/>
<text text-anchor="middle" x="177" y="-158.3" font-family="Times,serif" font-size="14.00">config</text>
</g>
<!-- vfs&#45;&gt;config -->
<g id="edge6" class="edge">
<title>vfs&#45;&gt;config</title>
<path fill="none" stroke="black" d="M177,-215.7C177,-207.98 177,-198.71 177,-190.11"/>
<polygon fill="black" stroke="black" points="180.5,-190.1 177,-180.1 173.5,-190.1 180.5,-190.1"/>
</g>
<!-- step1 -->
<g id="node11" class="node">
<title>step1</title>
<ellipse fill="skyblue" stroke="black" cx="257" cy="-162" rx="29.5" ry="18"/>
<text text-anchor="middle" x="257" y="-158.3" font-family="Times,serif" font-size="14.00">step1</text>
</g>
<!-- vfs&#45;&gt;step1 -->
<g id="edge10" class="edge">
<title>vfs&#45;&gt;step1</title>
<path fill="none" stroke="black" d="M192.81,-219.17C204.27,-209.14 219.98,-195.39 232.99,-184.01"/>
<polygon fill="black" stroke="black" points="235.46,-186.5 240.68,-177.28 230.85,-181.23 235.46,-186.5"/>
</g>
<!-- ps -->
<g id="node8" class="node">
<title>ps</title>
<ellipse fill="skyblue" stroke="black" cx="105" cy="-90" rx="27" ry="18"/>
<text text-anchor="middle" x="105" y="-86.3" font-family="Times,serif" font-size="14.00">ps</text>
</g>
<!-- config&#45;&gt;ps -->
<g id="edge7" class="edge">
<title>config&#45;&gt;ps</title>
<path fill="none" stroke="black" d="M161.38,-145.81C151.3,-136.01 138.04,-123.12 126.91,-112.3"/>
<polygon fill="black" stroke="black" points="129.22,-109.67 119.61,-105.21 124.34,-114.69 129.22,-109.67"/>
</g>
<!-- pw -->
<g id="node9" class="node">
<title>pw</title>
<ellipse fill="skyblue" stroke="black" cx="177" cy="-90" rx="27" ry="18"/>
<text text-anchor="middle" x="177" y="-86.3" font-family="Times,serif" font-size="14.00">pw</text>
</g>
<!-- config&#45;&gt;pw -->
<g id="edge8" class="edge">
<title>config&#45;&gt;pw</title>
<path fill="none" stroke="black" d="M177,-143.7C177,-135.98 177,-126.71 177,-118.11"/>
<polygon fill="black" stroke="black" points="180.5,-118.1 177,-108.1 173.5,-118.1 180.5,-118.1"/>
</g>
<!-- pure -->
<g id="node10" class="node">
<title>pure</title>
<ellipse fill="skyblue" stroke="black" cx="177" cy="-18" rx="27" ry="18"/>
<text text-anchor="middle" x="177" y="-14.3" font-family="Times,serif" font-size="14.00">pure</text>
</g>
<!-- pw&#45;&gt;pure -->
<g id="edge9" class="edge">
<title>pw&#45;&gt;pure</title>
<path fill="none" stroke="black" d="M177,-71.7C177,-63.98 177,-54.71 177,-46.11"/>
<polygon fill="black" stroke="black" points="180.5,-46.1 177,-36.1 173.5,-46.1 180.5,-46.1"/>
</g>
<!-- substep -->
<g id="node12" class="node">
<title>substep</title>
<ellipse fill="skyblue" stroke="black" cx="259" cy="-90" rx="37.09" ry="18"/>
<text text-anchor="middle" x="259" y="-86.3" font-family="Times,serif" font-size="14.00">substep</text>
</g>
<!-- step1&#45;&gt;substep -->
<g id="edge11" class="edge">
<title>step1&#45;&gt;substep</title>
<path fill="none" stroke="black" d="M257.49,-143.7C257.71,-135.98 257.98,-126.71 258.23,-118.11"/>
<polygon fill="black" stroke="black" points="261.72,-118.2 258.51,-108.1 254.73,-118 261.72,-118.2"/>
</g>
<!-- cgi -->
<g id="node14" class="node">
<title>cgi</title>
<ellipse fill="skyblue" stroke="black" cx="331" cy="-162" rx="27" ry="18"/>
<text text-anchor="middle" x="331" y="-158.3" font-family="Times,serif" font-size="14.00">cgi</text>
</g>
<!-- www&#45;&gt;cgi -->
<g id="edge13" class="edge">
<title>www&#45;&gt;cgi</title>
<path fill="none" stroke="black" d="M300.28,-216.76C305.17,-208.19 311.29,-197.49 316.77,-187.9"/>
<polygon fill="black" stroke="black" points="319.85,-189.57 321.77,-179.15 313.77,-186.09 319.85,-189.57"/>
</g>
</g>
</svg>
